:SAMPLES-PER-SECOND 30
:FULLY-SPECIFIED
:DEGREES
155
root  -6.84299 40.8888 -0.717419 -8.30005 -86.0849 10.3404
RightUpLeg  5.20795 -2.36568 -1.17586
RightLeg  -4.20627 -28.3378 2.83456
RightFoot  -1.53273 -0.228464 2.53974
RightToes  -3.11842e-008 1.75238e-005 3.56266e-009
Spine  1.17021 -0.214717 0.751236
Spine1  -5.66338 0.429102 -4.58497
HEad  -13.2279 6.36789 -8.52925
LeftShoulder1  0.853457 0.403134 -21.0529
LeftArm  -68.3128 20.6007 -39.9991
LeftForeArm  142.524 -57.2549 -162.257
LeftHand  0.111616 -4.98838 -0.94224
RightShoulder  1.04468 0.727177 18.2695
RightArm  -55.0688 -1.80327 23.4751
RightForeArm  157.384 59.5908 161.994
RightHand  0.0850074 6.4299 0.479779
LeftUpLeg  4.44596 1.6359 3.69968
LeftLeg  -4.39164 13.5932 -1.2486
LeftFoot  0.315755 0.445437 -4.40294
LeftToes  4.78904e-008 1.4679e-008 1.35657e-009
156
root  -6.83958 40.8851 -0.75074 -6.91364 -86.3386 8.71143
RightUpLeg  5.48675 -2.32583 -1.00998
RightLeg  -4.30271 -28.1516 2.93274
RightFoot  -1.57833 -0.221096 2.46201
RightToes  -3.11842e-008 1.75238e-005 3.56266e-009
Spine  0.194122 0.0100893 0.570247
Spine1  -3.95654 0.719958 -4.55101
HEad  -13.3976 6.08928 -8.89167
LeftShoulder1  1.06396 -0.235078 -22.1271
LeftArm  -59.4484 25.6215 -44.3759
LeftForeArm  145.792 -51.2847 -165.742
LeftHand  0.217419 -5.59076 -1.98391
RightShoulder  1.27329 1.31603 20.0408
RightArm  -45.4533 -4.02876 25.7913
RightForeArm  164.238 55.3838 165.062
RightHand  0.136662 7.17746 0.899752
LeftUpLeg  4.69131 1.83482 3.93954
LeftLeg  -4.28949 13.5817 -1.2373
LeftFoot  0.220698 0.447396 -4.43893
LeftToes  4.78904e-008 1.4679e-008 1.35657e-009
157
root  -6.80718 40.8888 -0.790907 -5.90967 -86.5576 7.36816
RightUpLeg  5.78064 -2.24298 -0.841442
RightLeg  -4.31425 -28.037 2.92448
RightFoot  -1.52781 -0.217089 2.41831
RightToes  -3.11842e-008 1.75238e-005 3.56266e-009
Spine  -0.647401 0.321773 1.19227
Spine1  -2.72058 1.20194 -5.52976
HEad  -12.6225 5.9421 -8.80948
LeftShoulder1  1.26179 -0.914773 -22.1993
LeftArm  -45.5276 24.2078 -45.7435
LeftForeArm  154.426 -49.0715 -167.273
LeftHand  0.228459 -7.05937 -1.76098
RightShoulder  1.69195 2.66089 21.2035
RightArm  -35.7449 -1.63455 25.9945
RightForeArm  172.331 53.788 166.48
RightHand  0.141487 7.6715 0.88631
LeftUpLeg  4.97078 2.02443 4.15171
LeftLeg  -4.1497 13.563 -1.2173
LeftFoot  0.208565 0.450228 -4.46322
LeftToes  4.78904e-008 1.4679e-008 1.35657e-009
158
root  -6.72477 40.8895 -0.826455 -6.83783 -86.6325 7.89685
RightUpLeg  5.88821 -2.29406 -0.83411
RightLeg  -3.88137 -27.9278 2.71001
RightFoot  -1.63833 -0.215336 2.40866
RightToes  -3.11842e-008 1.75238e-005 3.56266e-009
Spine  -0.50844 0.545403 1.83439
Spine1  -2.99931 1.51526 -6.3374
HEad  -10.1807 5.00155 -9.25842
LeftShoulder1  1.72941 -2.46502 -22.6749
LeftArm  -33.1553 17.5305 -42.5455
LeftForeArm  164.768 -50.4361 -167.408
LeftHand  0.288311 -8.01801 -2.1173
RightShoulder  1.91509 3.57766 20.7363
RightArm  -27.2506 5.80302 26.3962
RightForeArm  178.782 55.104 166.323
RightHand  0.046154 7.70884 0.0276544
LeftUpLeg  5.2072 2.09637 4.20647
LeftLeg  -3.98663 13.548 -1.19059
LeftFoot  0.225872 0.464455 -4.59886
LeftToes  4.78904e-008 1.4679e-008 1.35657e-009
159
root  -6.60384 40.8937 -0.870946 -5.8172 -86.1393 6.47839
RightUpLeg  6.17022 -2.32473 -0.729808
RightLeg  -3.89961 -28.4186 2.76171
RightFoot  -1.59486 -0.209095 2.32838
RightToes  -3.11842e-008 1.75238e-005 3.56266e-009
Spine  0.0164395 0.269969 2.38524
Spine1  -3.68911 1.29229 -7.04908
HEad  -7.60117 4.46524 -8.87298
LeftShoulder1  2.14049 -3.87121 -22.7375
LeftArm  -26.9772 5.79708 -38.8854
LeftForeArm  172.857 -54.0866 -166.345
LeftHand  0.231967 -7.88662 -1.66073
RightShoulder  2.15708 4.71736 19.8619
RightArm  -22.488 15.8319 25.6536
RightForeArm  179.626 58.4775 164.59
RightHand  -0.18078 7.81327 -1.92021
LeftUpLeg  5.16999 2.20646 4.35616
LeftLeg  -3.60099 12.8895 -1.07917
LeftFoot  0.273979 0.47395 -4.67599
LeftToes  4.78904e-008 1.4679e-008 1.35657e-009
160
root  -6.47758 40.8974 -0.906145 -6.38702 -85.8367 6.95013
RightUpLeg  6.00442 -2.32735 -0.727398
RightLeg  -3.69619 -28.7283 2.66522
RightFoot  -1.53115 -0.20783 2.32419
RightToes  -3.11842e-008 1.75238e-005 3.56266e-009
Spine  0.799157 0.207124 2.95427
Spine1  -4.8494 1.26287 -7.81981
HEad  -5.58232 4.12315 -8.39527
LeftShoulder1  2.2771 -4.55382 -21.9387
LeftArm  -25.1736 -7.35338 -37.7245
LeftForeArm  173.74 -58.9281 -163.834
LeftHand  0.129847 -8.28146 -0.717496
RightShoulder  2.11836 5.16497 17.901
RightArm  -22.114 25.296 25.53
RightForeArm  178.412 62.3647 161.939
RightHand  -0.317718 8.34883 -2.92865
LeftUpLeg  5.05827 2.18806 4.35138
LeftLeg  -3.68804 12.622 -1.11244
LeftFoot  0.526826 0.475955 -4.60944
LeftToes  4.78904e-008 1.4679e-008 1.35657e-009
161
root  -6.3986 40.9084 -0.940969 -5.36053 -85.5799 5.91498
RightUpLeg  6.02066 -2.18545 -0.56426
RightLeg  -4.00351 -29.1453 2.79478
RightFoot  -1.33346 -0.198767 2.19776
RightToes  -3.11842e-008 1.75238e-005 3.56266e-009
Spine  1.7638 0.060185 3.5925
Spine1  -6.34455 1.14632 -8.8921
HEad  -3.92791 3.53261 -7.36765
LeftShoulder1  2.28652 -5.14093 -20.0028
LeftArm  -28.6908 -17.7597 -38.4466
LeftForeArm  172.321 -63.0731 -160.826
LeftHand  0.103411 -7.20775 -0.577296
RightShoulder  1.95467 5.25093 15.5985
RightArm  -25.6197 32.723 25.6795
RightForeArm  177.291 66.2052 158.619
RightHand  0.125393 6.95118 0.798579
LeftUpLeg  5.01179 2.15599 4.42363
LeftLeg  -3.96397 12.3929 -1.08889
LeftFoot  0.814334 0.483568 -4.58761
LeftToes  4.78904e-008 1.4679e-008 1.35657e-009
162
root  -6.31898 40.9219 -0.973403 -3.84515 -85.2971 4.6944
RightUpLeg  5.69889 -1.98346 -0.372896
RightLeg  -4.32174 -29.6412 2.93775
RightFoot  -1.03437 -0.193351 2.12656
RightToes  -3.11842e-008 1.75238e-005 3.56266e-009
Spine  2.52327 0.00784473 3.68931
Spine1  -7.68971 1.04138 -9.23101
HEad  -3.47912 2.94897 -5.7019
LeftShoulder1  2.27827 -5.54907 -18.6084
LeftArm  -35.0797 -26.5388 -39.9239
LeftForeArm  170.393 -66.8156 -157.237
LeftHand  0.0209422 -5.72431 0.0834873
RightShoulder  1.74402 5.03167 13.5061
RightArm  -32.0181 37.6992 24.8836
RightForeArm  178.036 69.3754 155.216
RightHand  -0.128569 7.46856 -1.55041
LeftUpLeg  4.49108 2.10297 4.505
LeftLeg  -3.96414 12.1966 -1.02959
LeftFoot  1.0597 0.490787 -4.57589
LeftToes  4.78904e-008 1.4679e-008 1.35657e-009
163
root  -6.25919 40.9339 -0.990008 -3.14941 -85.0926 4.46136
RightUpLeg  5.19284 -1.92526 -0.346267
RightLeg  -4.51823 -29.8781 3.11279
RightFoot  -0.848136 -0.187038 2.04
RightToes  -3.11842e-008 1.75238e-005 3.56266e-009
Spine  3.19143 -0.0735872 3.78023
Spine1  -9.08819 0.909142 -9.69225
HEad  -3.83512 2.38654 -4.44054
LeftShoulder1  2.12784 -5.34677 -17.4079
LeftArm  -42.6432 -33.313 -41.9037
LeftForeArm  170.768 -69.8933 -153.648
LeftHand  -0.108703 -6.20831 1.43556
RightShoulder  1.55178 4.58575 12.1404
RightArm  -39.6493 40.1737 23.7312
RightForeArm  175.173 71.8464 151.354
RightHand  -0.225616 6.36513 -2.5554
LeftUpLeg  3.8994 2.02441 4.50742
LeftLeg  -4.08334 12.133 -1.06129
LeftFoot  1.29423 0.500535 -4.59107
LeftToes  4.78904e-008 1.4679e-008 1.35657e-009
164
root  -6.22916 40.9411 -0.997377 -2.71637 -84.9739 4.26605
RightUpLeg  4.9098 -1.86791 -0.309596
RightLeg  -4.57842 -30.0432 3.14615
RightFoot  -0.706499 -0.183404 1.99343
RightToes  -3.11842e-008 1.75238e-005 3.56266e-009
Spine  3.72747 0.0142446 3.76447
Spine1  -9.95951 0.951182 -9.83747
HEad  -4.19291 1.68079 -3.78639
LeftShoulder1  2.13024 -5.46405 -17.0907
LeftArm  -51.3013 -37.667 -42.9252
LeftForeArm  170.891 -71.8896 -150.681
LeftHand  -0.256241 -6.25652 2.85743
RightShoulder  1.50038 4.52119 11.591
RightArm  -47.8704 40.1294 21.5713
RightForeArm  171.203 73.1219 148.544
RightHand  -0.253285 6.1792 -2.8663
LeftUpLeg  3.66317 1.97198 4.50859
LeftLeg  -4.29793 12.0854 -1.10422
LeftFoot  1.52076 0.496554 -4.49328
LeftToes  4.78904e-008 1.4679e-008 1.35657e-009
165
root  -6.18342 40.9428 -1.00816 -1.5636 -84.6438 3.20929
RightUpLeg  4.8391 -1.82256 -0.209585
RightLeg  -4.79888 -30.4149 3.33406
RightFoot  -0.607434 -0.177345 1.90754
RightToes  -3.11842e-008 1.75238e-005 3.56266e-009
Spine  3.96771 -0.0982374 3.5727
Spine1  -10.0235 0.814593 -9.56422
HEad  -4.99583 0.967385 -3.29198
LeftShoulder1  2.13935 -5.36174 -17.5031
LeftArm  -59.8173 -39.804 -42.4513
LeftForeArm  169.228 -72.7664 -148.91
LeftHand  -0.466371 -6.61281 4.85949
RightShoulder  1.47154 4.36437 11.5961
RightArm  -55.0448 38.7317 20.0198
RightForeArm  169.804 73.4255 147.729
RightHand  -0.209766 5.69561 -2.51287
LeftUpLeg  3.30584 1.97203 4.58858
LeftLeg  -4.06128 11.7577 -0.990706
LeftFoot  1.51025 0.503408 -4.57005
LeftToes  4.78904e-008 1.4679e-008 1.35657e-009
